<?xml version="1.0" encoding="utf-8"?>
<!-- Generator: Adobe Illustrator 17.0.0, SVG Export Plug-In . SVG Version: 6.00 Build 0)  -->
<!DOCTYPE svg PUBLIC "-//W3C//DTD SVG 1.1//EN" "http://www.w3.org/Graphics/SVG/1.1/DTD/svg11.dtd">
<svg version="1.1" id="Layer_1" xmlns="http://www.w3.org/2000/svg" xmlns:xlink="http://www.w3.org/1999/xlink" x="0px" y="0px"
	 width="30px" height="27.5px" viewBox="0 0 30 27.5" enable-background="new 0 0 30 27.5" xml:space="preserve">
<path fill="#EE246A" d="M29.369,20.319L19.173,2.409c-0.423-0.743-1.026-1.344-1.737-1.76C16.727,0.233,15.91,0.002,15.06,0
	c-1.7-0.005-3.272,0.905-4.126,2.386L0.644,20.241c-0.854,1.481-0.859,3.309-0.013,4.795c0.423,0.743,1.026,1.344,1.737,1.76
	c0.71,0.416,1.527,0.647,2.377,0.649L25.23,27.5c1.7,0.005,3.272-0.905,4.126-2.386C30.21,23.632,30.215,21.804,29.369,20.319z"/>
<path fill="#FFFFFF" d="M18.684,11.763c-0.998,0-1.937,0.381-2.643,1.073l-0.823,0.807l-0.823-0.806
	c-0.706-0.692-1.644-1.073-2.643-1.073c-0.998,0-1.936,0.381-2.642,1.073c-1.457,1.428-1.457,3.753,0,5.182l5.684,5.573
	c0.112,0.11,0.265,0.172,0.424,0.172c0.159,0,0.311-0.062,0.424-0.172l5.684-5.573c1.457-1.429,1.457-3.753,0-5.182
	C20.621,12.144,19.682,11.763,18.684,11.763L18.684,11.763z"/>
</svg>
