<?xml version="1.0" encoding="utf-8"?>
<!-- Generator: Adobe Illustrator 17.0.0, SVG Export Plug-In . SVG Version: 6.00 Build 0)  -->
<!DOCTYPE svg PUBLIC "-//W3C//DTD SVG 1.1//EN" "http://www.w3.org/Graphics/SVG/1.1/DTD/svg11.dtd">
<svg version="1.1" id="Layer_1" xmlns="http://www.w3.org/2000/svg" xmlns:xlink="http://www.w3.org/1999/xlink" x="0px" y="0px"
	 width="30px" height="27.5px" viewBox="0 0 30 27.5" enable-background="new 0 0 30 27.5" xml:space="preserve">
<path fill="#324752" d="M29.369,20.319L19.173,2.409c-0.423-0.743-1.026-1.344-1.737-1.76C16.727,0.233,15.91,0.002,15.06,0
	c-1.7-0.005-3.272,0.905-4.126,2.386L0.644,20.241c-0.854,1.481-0.859,3.309-0.013,4.795c0.423,0.743,1.026,1.344,1.737,1.76
	c0.71,0.416,1.527,0.647,2.377,0.649L25.23,27.5c1.7,0.005,3.272-0.905,4.126-2.386C30.21,23.632,30.215,21.804,29.369,20.319z"/>
<g>
	<circle fill="#B8BFC8" cx="15.119" cy="11.848" r="3.974"/>
	<path fill="#B8BFC8" d="M23.619,22.999c-1.322-3.408-4.625-5.829-8.5-5.829s-7.178,2.42-8.5,5.829H23.619z"/>
</g>
</svg>
