<?xml version="1.0" encoding="utf-8"?>
<!-- Generator: Adobe Illustrator 17.0.0, SVG Export Plug-In . SVG Version: 6.00 Build 0)  -->
<!DOCTYPE svg PUBLIC "-//W3C//DTD SVG 1.1//EN" "http://www.w3.org/Graphics/SVG/1.1/DTD/svg11.dtd">
<svg version="1.1" id="Layer_1" xmlns="http://www.w3.org/2000/svg" xmlns:xlink="http://www.w3.org/1999/xlink" x="0px" y="0px"
	 width="30px" height="27.5px" viewBox="0 0 30 27.5" enable-background="new 0 0 30 27.5" xml:space="preserve">
<path fill="#FED208" d="M29.369,20.319L19.173,2.409c-0.423-0.743-1.026-1.344-1.737-1.76C16.727,0.233,15.91,0.002,15.06,0
	c-1.7-0.005-3.272,0.905-4.126,2.386L0.644,20.241c-0.854,1.481-0.859,3.309-0.013,4.795c0.423,0.743,1.026,1.344,1.737,1.76
	c0.71,0.416,1.527,0.647,2.377,0.649L25.23,27.5c1.7,0.005,3.272-0.905,4.126-2.386C30.21,23.632,30.215,21.804,29.369,20.319z"/>
<g>
	<path fill="#FFFFFF" d="M6.491,22.788c0.052-0.194,2.376-7.509,2.53-8.221s0.826-1.813,1.807-1.813s4.803,0,4.803,0v8.221h-4.183
		l-2.944,3.042c0,0-0.568,0.583-1.446,0.259S6.491,22.788,6.491,22.788z"/>
	<path fill="#FFFFFF" d="M23.88,22.788c-0.052-0.194-2.376-7.509-2.53-8.221c-0.155-0.712-0.826-1.813-1.807-1.813
		c-0.981,0-4.803,0-4.803,0v8.221h4.183l2.944,3.042c0,0,0.568,0.583,1.446,0.259C24.19,23.953,23.88,22.788,23.88,22.788z"/>
	<circle fill="#FED208" cx="11.565" cy="16.922" r="2.005"/>
	<circle fill="#FED208" cx="18.492" cy="16.922" r="2.005"/>
	<rect x="14.391" y="7.716" fill="#FFFFFF" width="1.094" height="6.016"/>
</g>
</svg>
