<?xml version="1.0" encoding="utf-8"?>
<!-- Generator: Adobe Illustrator 17.0.0, SVG Export Plug-In . SVG Version: 6.00 Build 0)  -->
<!DOCTYPE svg PUBLIC "-//W3C//DTD SVG 1.1//EN" "http://www.w3.org/Graphics/SVG/1.1/DTD/svg11.dtd">
<svg version="1.1" id="Layer_1" xmlns="http://www.w3.org/2000/svg" xmlns:xlink="http://www.w3.org/1999/xlink" x="0px" y="0px"
	 width="145.711px" height="40.278px" viewBox="0 0 145.711 40.278" enable-background="new 0 0 145.711 40.278"
	 xml:space="preserve">
<g>
	<path fill="#324752" d="M145.214,24.37l-8.036-14.356c-0.333-0.596-0.809-1.077-1.369-1.411c-0.56-0.333-1.204-0.518-1.873-0.52
		c-1.34-0.004-2.579,0.725-3.252,1.913l-8.11,14.312c-0.673,1.187-0.677,2.652-0.01,3.844c0.333,0.595,0.809,1.077,1.369,1.411
		c0.56,0.333,1.204,0.518,1.873,0.52l16.146,0.044c1.339,0.004,2.579-0.725,3.252-1.913
		C145.877,27.026,145.881,25.561,145.214,24.37z M128.57,24.475l5.418-9.561l5.368,9.591L128.57,24.475z"/>
	<path fill="#324752" d="M112.68,8.674l-5.656,7.927l-5.656-7.927h-6.504l0.02,0.028v21.424h5.793V16.822l3.552,4.944
		c1.535,2.082,4.048,2.082,5.584,0l3.577-4.972v13.333h5.793V8.674H112.68z"/>
	<path fill="#324752" d="M90.353,8.422H84.52v16.347h-9.988V8.422H68.75v17.172c0,2.493,2.039,4.532,4.532,4.532h12.539
		c2.493,0,4.532-2.039,4.532-4.532V8.422z"/>
	<path fill="#324752" d="M65.476,24.77h-9.102l9.057-14.005c0.302-0.466,0.334-1.058,0.085-1.554l-0.026-0.052
		c-0.266-0.53-0.808-0.865-1.401-0.865H48.318v1.568v2.221v1.568h8.637l-9.057,14.005c-0.301,0.466-0.334,1.056-0.086,1.553
		l0.026,0.052c0.266,0.531,0.808,0.866,1.402,0.866h16.236v-1.568v-2.221V24.77z"/>
</g>
<g>
	<path fill="#324752" d="M29.673,20.139l7.519-13.023c0.847-1.468,0.847-3.276,0-4.744C36.344,0.904,34.778,0,33.084,0L4.744,0
		C3.049,0,1.483,0.904,0.636,2.372s-0.847,3.276,0,4.744l7.519,13.023L0.636,33.162c-0.847,1.468-0.847,3.276,0,4.744
		c0.847,1.468,2.413,2.372,4.108,2.372l28.34,0c1.695,0,3.261-0.904,4.108-2.372c0.847-1.468,0.847-3.276,0-4.744L29.673,20.139z
		 M4.744,35.83L4.744,35.83l28.34,0l0,0L4.744,35.83z"/>
	<g>
		<polygon fill="#C74C27" points="18.919,11.219 13.467,20.663 8.015,11.219 		"/>
		<polygon fill="#BDD631" points="13.455,20.651 18.617,29.591 24.075,20.137 18.914,11.197 		"/>
		<polygon fill="#4ABC90" points="29.484,29.565 18.627,29.565 18.617,29.583 18.607,29.565 18.587,29.565 18.597,29.548 
			13.455,20.643 4.694,35.715 33.034,35.715 		"/>
		<polygon fill="#F99E1C" points="8.014,11.228 18.87,11.228 18.881,11.21 18.891,11.228 18.911,11.228 18.901,11.245 24.043,20.15 
			32.804,5.078 4.464,5.078 		"/>
		<polygon fill="#078B78" points="18.595,29.59 24.047,20.147 29.499,29.59 		"/>
	</g>
</g>
</svg>
